<?xml version="1.0" encoding="iso-8859-1"?>
<!-- Generator: Adobe Illustrator 15.0.2, SVG Export Plug-In . SVG Version: 6.00 Build 0)  -->
<!DOCTYPE svg PUBLIC "-//W3C//DTD SVG 1.1//EN" "http://www.w3.org/Graphics/SVG/1.1/DTD/svg11.dtd">
<svg version="1.1" id="Layer_1" xmlns="http://www.w3.org/2000/svg" xmlns:xlink="http://www.w3.org/1999/xlink" x="0px" y="0px"
	 width="100px" height="50px" viewBox="0 0 100 50" style="enable-background:new 0 0 100 50;" xml:space="preserve">
<path style="fill:#005AA2;" d="M37.24,23.23L22.32,37.84L7.9,23.16L7.65,23L7,24v19h31V24L37.24,23.23z"/>
<path style="fill:#005AA2;" d="M-2-1v53h103V-1H-2z M77.68,1.65L92.35,17H85v21H70V16h-7.35L77.68,1.65z M44,49H1V24h6l0.65-1H15V2
	h15v21h7.35l-0.05,0.17l-0.06,0.06L38,24h6V49z M99,49H56V24h6v19h31V24h6V49z"/>
</svg>
